<?xml version="1.0" encoding="UTF-8"?>
<svg id="Layer_1" xmlns="http://www.w3.org/2000/svg" version="1.1" viewBox="0 0 841.89 237.42">
  <!-- Generator: Adobe Illustrator 29.0.0, SVG Export Plug-In . SVG Version: 2.1.0 Build 186)  -->
  <defs>
    <style>
      .st0 {
        fill: #d0ff00;
      }
    </style>
  </defs>
  <path class="st0" d="M301.19,102.44l-63.23,63.23h-99.39l45.18-45.18h54.21l4.51-4.51-40.62-13.54h99.34ZM224.42,134.04h-9.03l-18.1,18.1h9.03l18.1-18.1Z"/>
  <path class="st0" d="M593.18,88.9l-63.23,63.23h-99.39l76.82-76.82c-10.96-12.04-21.91-24.07-32.87-36.11,26.09,12.04,52.19,24.07,78.28,36.11h-.23l-13.59,13.59h54.21ZM534.46,102.44h-9.03l-36.15,36.15h9.03l36.15-36.15Z"/>
  <path class="st0" d="M703.32,88.9l-63.23,63.23h-99.39l45.18-45.18h54.21l4.51-4.51-40.62-13.54h99.34ZM626.54,120.5h-9.03l-18.1,18.1h9.03l18.1-18.1Z"/>
  <polygon class="st0" points="442.53 82.63 428.98 96.18 474.15 96.18 487.7 82.63 442.53 82.63"/>
  <polygon class="st0" points="423.35 102.2 377.83 147.72 367.5 158.04 360.11 165.44 385.46 165.44 395.54 165.44 405.28 165.44 468.52 102.2 423.35 102.2"/>
  <path class="st0" d="M355.64,152.14h0s5.53,0,5.53,0l50.68-50.73h-45.18l-37.19,37.19h-8.94l56.3-56.34h-45.18l-83.42,83.42h45.18c26.34,10.84,52.67,21.69,79.01,32.53-15.79-15.36-31.58-30.71-47.37-46.07h30.57Z"/>
</svg>